<svg width="114" height="20" viewBox="0 0 114 20" fill="none" xmlns="http://www.w3.org/2000/svg">
<g clip-path="url(#clip0_2_4)">
<path d="M14.138 4.58608C14.0899 6.84304 12.1937 8.62406 9.93544 8.62406H5.88481V19.2405C5.88565 19.2909 5.87645 19.341 5.85774 19.3878C5.83903 19.4346 5.8112 19.4772 5.77585 19.5131C5.7405 19.5491 5.69836 19.5776 5.65186 19.5971C5.60537 19.6166 5.55547 19.6266 5.50506 19.6266H3.51772C3.46679 19.6274 3.4162 19.618 3.36897 19.5989C3.32174 19.5798 3.27884 19.5514 3.24282 19.5154C3.2068 19.4794 3.17839 19.4365 3.15929 19.3893C3.14019 19.342 3.13079 19.2915 3.13165 19.2405V8.62406H0.765825C0.665718 8.62211 0.570254 8.58148 0.499455 8.51068C0.428655 8.43988 0.388022 8.34442 0.386078 8.24431V6.25823C0.388062 6.15705 0.429572 6.06065 0.501726 5.98968C0.57388 5.91871 0.670946 5.8788 0.772154 5.87849H9.96582C10.7089 5.87849 11.3734 5.27216 11.3873 4.52912C11.3916 4.34572 11.3591 4.16333 11.2918 3.99265C11.2246 3.82198 11.1239 3.66645 10.9958 3.53521C10.8676 3.40397 10.7145 3.29966 10.5455 3.2284C10.3764 3.15715 10.1948 3.12038 10.0114 3.12026H6.26962C6.16841 3.11995 6.07135 3.08004 5.99919 3.00907C5.92704 2.93809 5.88553 2.8417 5.88355 2.74051V0.759499C5.88354 0.709093 5.89357 0.65919 5.91305 0.6127C5.93252 0.566209 5.96106 0.524062 5.997 0.488715C6.03294 0.453368 6.07555 0.42553 6.12235 0.406822C6.16916 0.388114 6.21922 0.378912 6.26962 0.379752H10.0114C10.5601 0.37965 11.1033 0.488971 11.6092 0.70132C12.1151 0.91367 12.5736 1.22478 12.9579 1.61646C13.3421 2.00813 13.6444 2.4725 13.847 2.98241C14.0497 3.49231 14.1486 4.0375 14.138 4.58608Z" fill="white"/>
<path d="M12.7633 17.2658V19.2405C12.7641 19.2909 12.7549 19.341 12.7362 19.3878C12.7175 19.4346 12.6897 19.4772 12.6543 19.5131C12.619 19.5491 12.5768 19.5776 12.5303 19.5971C12.4839 19.6166 12.434 19.6266 12.3835 19.6266H9.02152C8.97112 19.6266 8.92121 19.6166 8.87472 19.5971C8.82823 19.5776 8.78609 19.5491 8.75074 19.5131C8.71539 19.4772 8.68755 19.4346 8.66885 19.3878C8.65014 19.341 8.64094 19.2909 8.64178 19.2405V11.8304C8.64178 11.7297 8.68179 11.6331 8.753 11.5618C8.82422 11.4906 8.92081 11.4506 9.02152 11.4506H11.0013C11.102 11.4506 11.1986 11.4906 11.2698 11.5618C11.341 11.6331 11.381 11.7297 11.381 11.8304V16.6747C11.3814 16.7292 11.4032 16.7813 11.4419 16.8198C11.4806 16.8582 11.5328 16.8797 11.5873 16.8797H12.3709C12.4224 16.878 12.4736 16.8868 12.5216 16.9055C12.5696 16.9242 12.6132 16.9525 12.6499 16.9886C12.6866 17.0247 12.7156 17.0679 12.7351 17.1155C12.7546 17.1632 12.7642 17.2143 12.7633 17.2658Z" fill="white"/>
<path d="M28.181 5.05316H20.6329V17.319H23.4532V13.3405H27.8481C31.2469 13.3405 33.0861 11.9734 33.0861 9.1886C33.0861 6.71772 31.5443 5.05316 28.181 5.05316ZM27.6899 11.2025H23.4494V7.22658H27.6899C29.3355 7.22658 30.2127 7.80506 30.2127 9.1886C30.2127 10.538 29.3367 11.2025 27.6899 11.2025Z" fill="white"/>
<path d="M45.6139 17.3177H34.838V5.05316H37.6772V15.1456H45.6139V17.3177Z" fill="white"/>
<path d="M55.4607 5.05316H51.9924L46.3139 17.319H49.3101L50.362 14.9139H57.0886L58.1215 17.319H61.1177L55.4607 5.05316ZM51.3088 12.762L53.7266 7.1924L56.1443 12.762H51.3088Z" fill="white"/>
<path d="M72.7848 10.9051V10.8177C74.1165 10.438 74.8519 9.6443 74.8519 8.20759C74.8519 5.73671 73.0304 5.05316 70.0861 5.05316H62.3469V17.319H69.7228C73.5608 17.319 75.3127 16.4772 75.3127 13.7089C75.3165 12.1316 74.4013 11.2911 72.7848 10.9051ZM65.1684 7.22658H70.2317C71.3709 7.22658 72.1431 7.60633 72.1431 8.66329C72.1431 9.72025 71.4582 10.1165 70.2317 10.1165H65.1684V7.22658ZM70.3013 15.1633H65.1684V12.1253H70.3013C71.6848 12.1253 72.4393 12.4582 72.4393 13.4911C72.4393 14.524 71.9304 15.1633 70.3013 15.1633Z" fill="white"/>
<path d="M89.2076 13.4988C89.2076 16.157 87.0164 17.581 82.6544 17.581C78.4139 17.581 76.1886 15.9861 76.1886 13.4988H79.1316C79.2025 14.7772 80.6747 15.4253 82.8987 15.4253C85.2291 15.4253 86.2114 14.8127 86.2114 13.8836C86.2114 12.6177 84.3127 12.7443 80.9721 12.1848C77.6316 11.6253 76.5734 10.6076 76.5734 8.67977C76.5734 6.66458 77.9405 4.80762 82.4443 4.80762C86.7721 4.80762 88.4532 6.45319 88.5202 8.62787H85.7861C85.6848 7.75192 84.6696 6.96205 82.4051 6.96205C79.8823 6.96205 79.2861 7.64559 79.2861 8.48104C79.2861 9.638 81.319 9.70762 83.4734 10C86.8595 10.4848 89.2076 10.7595 89.2076 13.4988Z" fill="white"/>
<path d="M93.3772 16.1088C93.3739 16.3993 93.2848 16.6823 93.1211 16.9222C92.9574 17.1621 92.7264 17.3482 92.4571 17.4571C92.1878 17.5661 91.8924 17.5929 91.6079 17.5342C91.3234 17.4756 91.0626 17.3341 90.8584 17.1276C90.6542 16.921 90.5156 16.6587 90.4601 16.3736C90.4046 16.0885 90.4347 15.7933 90.5466 15.5253C90.6585 15.2572 90.8472 15.0283 91.0889 14.8672C91.3306 14.7062 91.6146 14.6203 91.905 14.6202C92.2976 14.6226 92.6732 14.7807 92.9492 15.0598C93.2253 15.339 93.3792 15.7163 93.3772 16.1088Z" fill="white"/>
<path d="M98.1253 5.05316H95.3038V17.3177H98.1253V5.05316Z" fill="white"/>
<path d="M106.151 5.05316H100.581V17.319H106.151C109.971 17.319 113.544 16.0747 113.544 11.1861C113.544 6.29747 109.971 5.05316 106.151 5.05316ZM105.87 15.1456H103.418V7.22658H105.87C108.795 7.22658 110.653 8.03291 110.653 11.1861C110.653 14.3392 108.795 15.1456 105.87 15.1456Z" fill="white"/>
</g>
<defs>
<clipPath id="clip0_2_4">
<rect width="113.924" height="20" fill="white"/>
</clipPath>
</defs>
</svg>
