<svg width="1920" height="1080" viewBox="0 0 1920 1080" fill="none" xmlns="http://www.w3.org/2000/svg">
<g clip-path="url(#clip0_1828_1211)">
<path d="M0 0V1080H1920V0H0ZM1411.23 832.02H1361.19V882H926.76V198H1311.16V247.99H1361.19V482.04H1311.16V548.02H1361.19V598.01H1411.23V832.02Z" fill="black"/>
<path d="M535.58 759.51C378.62 759.51 377.61 589.88 377.61 548.85C377.61 425.8 415.06 322.34 537.6 322.34C595.29 322.34 646.97 347.52 656.06 415.54H864.65C863.64 390.4 862.63 329.78 803.89 271.98C746.2 216.11 656.06 190 537.6 190C431.26 190 335.07 210.52 260.16 288.79C191.27 360.55 168 452.87 168 545.15C168 615.06 182.18 722.26 262.18 800.54C343.19 878.82 468.75 890 539.62 890C634.81 890 867.68 872.3 868.69 661.64H658.08C654.04 687.75 642.89 759.51 535.58 759.51Z" fill="white"/>
<path d="M1689.38 190V745.68H1688.25L1563.27 190H1469.3V890H1531.92V334.24H1533.06L1658.08 889.96V890H1752V190H1689.38Z" fill="white"/>
<path d="M1369.19 598.01H1411.23V832.02H1361.19V882H926.76V198H1311.16V247.99H1361.19V482.04H1311.16V548.02H1361.19V598.01H1369.19Z" stroke="white" stroke-width="16"/>
</g>
<defs>
<clipPath id="clip0_1828_1211">
<rect width="1920" height="1080" fill="white"/>
</clipPath>
</defs>
</svg>
